<?xml version="1.0" encoding="UTF-8" standalone="no"?>
<svg
   version="1.0"
   width="1280.000000pt"
   height="1106.000000pt"
   viewBox="0 0 1280.000000 1106.000000"
   preserveAspectRatio="xMidYMid meet"
   id="svg8"
   sodipodi:docname="logo.svg"
   inkscape:version="1.1.2 (b8e25be833, 2022-02-05)"
   xmlns:inkscape="http://www.inkscape.org/namespaces/inkscape"
   xmlns:sodipodi="http://sodipodi.sourceforge.net/DTD/sodipodi-0.dtd"
   xmlns="http://www.w3.org/2000/svg"
   xmlns:svg="http://www.w3.org/2000/svg">
  <defs
     id="defs12" />
  <sodipodi:namedview
     id="namedview10"
     pagecolor="#ffffff"
     bordercolor="#666666"
     borderopacity="1.0"
     inkscape:pageshadow="2"
     inkscape:pageopacity="0.0"
     inkscape:pagecheckerboard="0"
     inkscape:document-units="pt"
     showgrid="false"
     inkscape:zoom="0.56351718"
     inkscape:cx="944.95788"
     inkscape:cy="592.70598"
     inkscape:window-width="1920"
     inkscape:window-height="1017"
     inkscape:window-x="-8"
     inkscape:window-y="-8"
     inkscape:window-maximized="1"
     inkscape:current-layer="svg8" />
  <metadata
     id="metadata2">
Created by potrace 1.15, written by Peter Selinger 2001-2017
</metadata>
  <g
     transform="translate(0.000000,1106.000000) scale(0.100000,-0.100000)"
     fill="#000000"
     stroke="none"
     id="g6">
    <path
       d="m 6155,11049 c -1065,-110 -1892,-814 -2016,-1716 -7,-51 -16,-93 -19,-93 -3,0 -66,28 -140,61 -331,150 -878,353 -1165,433 -383,105 -680,165 -1000,202 -181,21 -567,23 -700,5 C 726,9887 458,9771 272,9576 185,9484 149,9431 95,9317 27,9172 6,9073 5,8895 5,8734 14,8667 61,8503 227,7914 812,7190 1682,6497 c 313,-250 736,-542 1094,-757 l 192,-115 -237,-121 C 1441,4843 787,4144 930,3577 c 109,-434 645,-721 1545,-828 347,-41 976,-52 1375,-24 113,7 248,17 300,20 l 95,7 67,-133 c 276,-550 661,-978 1119,-1246 29,-17 37,-28 43,-62 3,-23 13,-44 21,-47 7,-3 182,-289 386,-635 L 6254,0 h 46 46 l 485,613 c 266,336 508,635 537,663 43,43 52,57 52,87 0,33 5,38 73,81 401,250 785,694 1020,1179 l 62,128 77,-6 c 413,-29 544,-35 863,-35 482,0 750,21 1118,87 712,127 1141,397 1237,780 42,168 16,342 -81,537 -226,449 -818,928 -1720,1390 l -237,121 192,115 c 894,537 1693,1203 2195,1830 249,310 443,658 520,933 47,164 56,231 56,392 -1,178 -22,277 -90,422 -54,114 -90,167 -177,259 -186,195 -454,311 -843,365 -133,18 -519,16 -700,-5 -320,-37 -617,-97 -1000,-202 -287,-80 -834,-283 -1165,-433 -74,-33 -137,-61 -141,-61 -3,0 -9,28 -13,63 -27,259 -135,545 -295,783 -343,511 -910,849 -1595,950 -123,18 -498,26 -621,13 z M 5051,9838 c 223,-66 334,-560 204,-905 -30,-79 -87,-166 -130,-199 l -33,-25 -84,54 c -45,30 -125,78 -176,106 -102,58 -109,67 -138,176 -26,99 -26,341 0,440 49,186 147,323 252,355 41,12 61,12 105,-2 z m 2840,-14 c 84,-43 176,-187 214,-334 22,-87 31,-279 16,-366 -7,-38 -21,-98 -32,-134 l -20,-65 -91,-50 c -50,-28 -131,-76 -181,-108 l -89,-58 -33,25 c -43,33 -100,120 -130,199 -82,218 -70,528 27,727 37,76 118,161 168,177 43,15 110,9 151,-13 z M 2523,8984 c 487,-53 1028,-213 1569,-464 l 157,-72 54,-112 c 96,-194 224,-372 382,-530 l 87,-87 -44,-52 c -335,-397 -618,-978 -778,-1594 -10,-38 -14,-43 -61,-58 -28,-10 -104,-39 -170,-65 l -119,-49 -238,141 c -523,309 -844,521 -1167,772 -584,451 -952,879 -1070,1246 -33,102 -45,269 -25,359 41,193 212,378 436,471 96,40 239,77 364,94 135,19 452,19 623,0 z m 8363,1 c 305,-40 519,-134 665,-293 73,-79 130,-183 149,-273 20,-90 8,-257 -25,-359 -118,-367 -486,-795 -1070,-1246 -323,-250 -644,-463 -1167,-772 l -237,-140 -148,59 c -81,32 -154,59 -161,59 -16,0 -23,18 -60,165 -139,542 -425,1117 -734,1476 l -56,66 60,59 c 91,90 205,228 274,334 57,88 140,240 162,301 8,20 41,40 168,98 535,248 1080,410 1559,465 165,19 484,20 621,1 z M 6620,7496 c 305,-54 616,-241 874,-526 73,-81 198,-242 192,-248 -2,-2 -33,11 -67,29 -206,104 -497,195 -759,238 -556,92 -1181,4 -1674,-235 -38,-19 -71,-33 -72,-31 -8,8 143,195 236,291 297,307 571,452 950,500 58,7 230,-3 320,-18 z m 231,-1535 c 367,-56 671,-153 975,-310 118,-61 300,-171 367,-222 17,-13 52,-285 67,-522 7,-98 10,-180 9,-181 -2,-2 -58,35 -124,81 -544,385 -1118,573 -1746,573 -381,0 -727,-65 -1065,-200 -249,-99 -527,-257 -737,-418 -32,-24 -61,-42 -64,-39 -7,8 16,342 33,472 8,61 18,132 21,158 7,54 18,66 168,162 357,230 800,390 1245,449 176,24 187,24 460,21 194,-3 287,-9 391,-24 z M 3850,5550 c -110,-780 -33,-1624 214,-2347 l 35,-103 h -237 c -716,1 -1327,132 -1664,357 -81,54 -179,149 -225,219 -105,158 -112,368 -18,571 164,355 592,733 1251,1104 93,52 138,72 160,70 30,-1 39,3 162,92 31,22 333,168 338,163 1,0 -7,-57 -16,-126 z m 5241,56 c 78,-36 159,-77 180,-93 83.0722,-35.4266 132,-93 165,-93 24,0 73,-22 161,-71 652,-366 1084,-747 1248,-1102 47,-102 65,-181 65,-285 0,-322 -276,-568 -807,-722 -309,-89 -784,-145 -1179,-138 l -202,3 29,90 c 79,241 150,544 189,808 43,289 53,449 54,822 1,353 -6,480 -40,728 -16,123 -16,117 -9,117 3,0 68,-29 146,-64 z M 6809,4175 c 451,-53 839,-163 1229,-350 109,-53 133,-68 128,-82 -2,-10 -19,-72 -36,-138 -34,-128 -105,-344 -118,-357 -4,-4 -42,10 -84,32 -185,97 -514,220 -723,270 -266,63 -462,87 -829,100 -309,10 -396,6 -586,-31 -313,-61 -670,-190 -927,-337 -65,-36 -74,-39 -82,-24 -24,47 -151,471 -151,506 0,8 115,65 250,124 393,170 876,283 1315,306 128,7 486,-5 614,-19 z m 21,-1619 c 270,-36 680,-129 680,-155 0,-5 -54,-61 -120,-124 -227,-219 -470,-353 -750,-413 -118,-25 -362,-25 -480,0 -224,48 -446,155 -625,299 -58,47 -255,239 -255,248 0,7 185,57 329,89 119,26 336,59 466,70 148,13 620,4 755,-14 z"
       id="path4"
       sodipodi:nodetypes="ccscccccccccccccccccccccccccccsccccscccccccccccccccscccccccccccccccccccccccccccccccscccccccccccccccccccccscccccccccccscccccccccccscscccccccccccccccccccccccsccscccccccscccccsccccccscccssccccsccs" />
  </g>
  <path
     style="fill:#ffcc00;stroke-width:0.627405"
     d="m 637.54537,1039.4529 c -2.93199,-5.8063 -18.92921,-59.29192 -19.3835,-64.80743 -0.15215,-1.84718 0.13009,-2.21902 2.9689,-3.91157 6.66225,-3.97216 31.0523,-14.98344 45.80055,-20.6774 44.06475,-17.01238 90.80563,-27.85009 143.362,-33.24103 10.23353,-1.04969 61.11134,-1.02596 78.1119,0.0364 62.99306,3.93658 128.46058,21.33267 184.88348,49.12739 12.9126,6.36097 14.9449,7.64208 14.9449,9.42092 0,3.88511 -12.3903,45.98462 -17.4203,59.19032 -2.2991,6.036 -2.4583,6.2691 -4.1955,6.1418 -0.9932,-0.073 -7.3351,-2.799 -14.0932,-6.0582 -19.849,-9.5727 -36.9569,-16.442 -61.22499,-24.5836 -29.32892,-9.8395 -57.83015,-15.94099 -89.12429,-19.07942 -39.5047,-3.96186 -94.23727,-4.91096 -113.97948,-1.97648 -45.98499,6.83519 -97.3615,24.2747 -139.45064,47.3358 -4.82627,2.6443 -9.12458,4.8079 -9.55181,4.8079 -0.42722,0 -1.16883,-0.7764 -1.64802,-1.7254 z"
     id="path140"
     transform="scale(0.75)" />
  <path
     style="fill:#ffcc00;stroke-width:0.627405"
     d="m 604.75387,835.9312 c 1.289,-26.84697 5.62504,-69.69708 7.9339,-78.40532 0.83701,-3.15691 5.54936,-7.39814 15.41852,-13.87705 47.58849,-31.24094 101.58845,-52.30686 158.03194,-61.64982 29.68607,-4.91387 31.317,-5.03959 63.99529,-4.93329 39.91321,0.12984 52.65726,1.04967 77.7982,5.61523 41.24088,7.4893 75.88318,19.02862 111.99178,37.30433 22.3507,11.31243 51.5649,29.30395 52.804,32.51927 2.3779,6.17015 6.21,37.80805 8.3676,69.08205 0.9944,14.41427 1.1834,21.95917 0.55,21.95917 -0.439,0 -1.8942,-0.96643 -20.9403,-13.90621 -49.3175,-33.50601 -98.24434,-54.69234 -150.32837,-65.09532 -45.43145,-9.07423 -97.15999,-9.87629 -142.89449,-2.2156 -45.53482,7.62725 -88.28735,23.34318 -131.05563,48.17637 -16.01259,9.29764 -23.8962,14.50735 -44.68819,29.53128 -8.2037,5.92785 -7.4862,6.34957 -6.98425,-4.10509 z"
     id="path179"
     transform="scale(0.75)" />
  <path
     style="fill:#ffcc00;stroke-width:1.25481"
     d="m 827.54695,1226.5703 c -25.82562,-4.165 -58.37195,-18.43 -83.01069,-36.3834 -8.88257,-6.4724 -39.66685,-35.7786 -38.67156,-36.8148 0.36393,-0.3789 6.85757,-2.3639 14.43031,-4.4112 52.85962,-14.2905 91.63555,-18.5113 151.30846,-16.47 26.61904,0.9106 38.75484,1.8973 53.81863,4.3757 22.07795,3.6325 55.00993,10.7683 67.50038,14.6262 l 8.40452,2.5959 -15.1263,14.5984 c -30.05787,29.0088 -58.0806,45.5289 -93.14365,54.9104 -10.60406,2.8372 -15.18543,3.3126 -35.39467,3.6724 -12.76769,0.2274 -26.31963,-0.088 -30.11543,-0.6996 z"
     id="path218"
     transform="scale(0.75)" />
  <path
     style="fill:#ffcc00;stroke-width:1.25481"
     d="m 684.49865,575.59874 c 0,-1.95353 18.688,-24.1014 31.31657,-37.11449 33.94572,-34.97931 66.69797,-53.92605 107.537,-62.20873 15.46957,-3.13742 38.06253,-3.42302 56.07006,-0.70878 46.04292,6.93997 93.91184,37.93297 131.67102,85.25117 6.0221,7.5465 10.9491,14.13516 10.9491,14.64147 0,0.5063 -6.2054,-1.85741 -13.7899,-5.25271 -29.11339,-13.03298 -65.89082,-23.73206 -99.77033,-29.02461 -15.1001,-2.35889 -22.67804,-2.74248 -53.95681,-2.73128 -30.8571,0.011 -39.10273,0.4241 -54.23598,2.71689 -39.55,5.99209 -73.16729,15.78213 -106.06595,30.88856 -5.34863,2.45599 -9.72478,4.05012 -9.72478,3.54251 z"
     id="path257"
     transform="scale(0.75)" />
</svg>
